
<svg xmlns="http://www.w3.org/2000/svg" width="50" style="fill:currentcolor" viewBox="0 0 136.51 142.62">
    <defs><style>.b{fill:#fff;}</style></defs><path class="b" d="M0,44.58L28.83,7.8C32.59,3,38.24,.25,44.34,.25h.8c-1.74,1.29-3.32,2.82-4.7,4.58L9.29,44.57h.01v.03l23.77,30.54c.11,.14,.23,.28,.34,.42l6.01,7.72c1.81,2.33,3.95,4.31,6.31,5.92-7.05-.08-13.57-3.31-17.91-8.88L0,44.58Z"/><path class="b" d="M16.16,44.33l27.82,35.73c4.26,5.47,10.62,8.68,17.53,8.87-2.21-1.56-4.21-3.46-5.92-5.66L25.45,44.57l.09-.11-.09-.11L49.62,13.51c.43-.54,.89-1.05,1.37-1.53l5.61-7.16c1.46-1.87,3.15-3.48,5.02-4.82h-1.13c-6.09,0-11.75,2.75-15.51,7.55L16.16,44.33Z"/><path class="b" d="M32.47,44.72l27.82,35.73c4.39,5.63,10.99,8.87,18.12,8.89-2.44-1.64-4.65-3.67-6.52-6.06l-5.14-6.6c-.42-.44-.83-.9-1.21-1.39l-23.78-30.54,.06-.08-.06-.08L72.91,4.82c1.33-1.69,2.85-3.18,4.52-4.44h-.63c-6.09,0-11.75,2.75-15.51,7.55l-28.83,36.78Z"/><path class="b" d="M75.7,80.31c4.4,5.65,11.03,8.89,18.19,8.89h23.8c10.2,0,18.51-8.3,18.51-18.51V20.16C136.2,9.18,127.27,.25,116.28,.25h-24.07c-6.09,0-11.75,2.75-15.51,7.55l-28.83,36.78,27.82,35.73Zm5.64-66.55c3.08-3.93,7.71-6.19,12.71-6.19h22.65c6.71,0,12.17,5.46,12.17,12.17v49.4c0,7.02-5.71,12.73-12.73,12.73h-21.4c-5.43,0-10.46-2.46-13.79-6.74l-23.78-30.54,24.17-30.84Z"/><g><path class="b" d="M0,97.71v44.91H136.51v-44.91H0Zm14.63,36.62H7.46v-28.34h6.84c4.74,0,7.85,2.63,7.85,7.29,0,2.67-1.5,4.7-2.95,5.63,2.59,1.05,4.41,3.32,4.41,7,0,5.18-3.52,8.42-8.99,8.42Zm17.61,0h-4.33v-28.34h4.33v28.34Zm19.19,0h-15.02v-2.06l9.76-22.22h-9.15v-4.05h14.17v2.06l-9.76,22.22h10v4.05Zm11.13-3.72c2.35,0,3.72-1.74,4.29-5.26l4.01,.73c-.97,6.07-3.97,8.58-8.38,8.58-5.51,0-8.99-4.66-8.99-14.49s3.85-14.49,9.39-14.49c4.45,0,7.45,2.55,8.06,8.83l-4.09,.65c-.45-3.64-1.54-5.42-3.97-5.42-3.24,0-4.9,3.52-4.9,10.44s1.34,10.44,4.58,10.44Zm29.43,3.72h-4.33v-13.08h-8.02v13.08h-4.33v-28.34h4.33v11.17h8.02v-11.17h4.33v28.34Zm18.95,0l-1.82-7.17h-7.33l-1.82,7.17h-4.41l7.69-28.34h4.41l7.69,28.34h-4.41Zm19.07-24.29h-5.55v24.29h-4.37v-24.29h-5.55v-4.05h15.46v4.05Z"/><path class="b" d="M17.91,113.77c0-2.47-1.38-3.76-3.77-3.76h-2.35v7.45h2.43c2.31,0,3.68-1.25,3.68-3.68Z"/><path class="b" d="M14.38,121.26h-2.59v9.07h2.55c3.2,0,4.9-1.46,4.9-4.53s-1.66-4.53-4.86-4.53Z"/><polygon class="b" points="102.79 123.12 108.1 123.12 105.47 112.72 102.79 123.12"/></g></svg>