<svg xmlns="http://www.w3.org/2000/svg" width="42" style="fill:#02518f" viewBox="0 0 145.34 135.57">
                    <path xmlns="http://www.w3.org/2000/svg" class="cls-1" d="M121,88.82V96h-7.37v-7.6c0-2.61,1.11-3.72,3.69-3.72S121,86,121,88.82ZM117.31,8.64c-2.58,0-3.69,1.11-3.69,3.72V20H121V12.83C121,10,119.79,8.64,117.31,8.64Zm3.6,111.83v-8l-5.79,8Zm-3.56-58.84c-2.61,0-3.73,1.4-3.73,4.69v7h7.44v-7C121.06,63,120,61.63,117.35,61.63Zm5.43-28.87c-4.84,0-10,2.23-10,8.51s5.18,8.5,10,8.5,10-2.23,10-8.5S127.62,32.76,122.78,32.76ZM145.34.19V135.76H125.27V124.93h11v-4.46h-11V104.34h-3.74L109.2,121v4h11.71v10.83H100.43V.19ZM109.25,24.77h27.06V20h-11V11.53a7.6,7.6,0,0,0-8-7.69c-6,0-8.1,4-8.1,7.4ZM136.31,96h-11V87.52a7.6,7.6,0,0,0-8-7.69c-6,0-8.1,4-8.1,7.4v13.53h27.06Zm0-40.82L125,62.33c-.95-3.51-3.69-5.5-7.64-5.5-5.22,0-8.1,3.18-8.1,9v12.3h27.06v-4.8H125.43V67.82l10.88-6.91ZM137,41.27c0-8.26-5.56-13.6-14.17-13.6S108.61,33,108.61,41.27s5.56,13.59,14.17,13.59S137,49.53,137,41.27ZM44.69,47.43,89.1,82.24v53.52H0V82.24ZM81.54,85.92,44.68,57,7.56,85.93V128.2h74ZM0,35.2v9.46L44.69,9.85,89.1,44.66V35.2L44.69.4ZM0,51v9.45l44.69-34.8L89.1,60.41V51L44.69,16.15ZM0,66.71v9.46L44.69,41.36,89.1,76.17V66.71L44.69,31.91Z" transform="translate(0 -0.19)"></path></svg>